<svg width="24" height="24" viewBox="0 0 24 24" fill="none" xmlns="http://www.w3.org/2000/svg">
<path d="M12.5526 3.18962C12.3946 3.06673 12.2002 3 12 3C11.7998 3 11.6054 3.06673 11.4474 3.18962L4.0422 8.94962C3.71744 9.20225 3.45472 9.52576 3.27409 9.89543C3.09347 10.2651 2.99972 10.6712 3 11.0826V19.2006C3 19.678 3.18964 20.1359 3.52721 20.4734C3.86477 20.811 4.32261 21.0006 4.8 21.0006H8.4C8.87739 21.0006 9.33523 20.811 9.67279 20.4734C10.0104 20.1359 10.2 19.678 10.2 19.2006V13.8006H13.8V19.2006C13.8 19.678 13.9896 20.1359 14.3272 20.4734C14.6648 20.811 15.1226 21.0006 15.6 21.0006H19.2C19.6774 21.0006 20.1352 20.811 20.4728 20.4734C20.8104 20.1359 21 19.678 21 19.2006V11.0826C21.0001 10.671 20.906 10.2649 20.7251 9.89518C20.5442 9.52549 20.2811 9.20207 19.956 8.94962L12.5526 3.18962Z" fill="black"/>
</svg>
