<svg width="98" height="98" viewBox="0 0 98 98" fill="none" xmlns="http://www.w3.org/2000/svg">
<path d="M28.02 72.83C28.8992 72.178 49.7746 57.048 70.9368 72.83L74.5974 67.9192C49.7176 49.3572 24.6044 67.7368 24.3532 67.9222L28.02 72.83Z" fill="#828282"/>
<path d="M27.6342 45.752L33.2898 40.096L38.9452 45.752L43.2758 41.4214L37.6202 35.7654L43.2758 30.1092L38.9452 25.7786L33.2898 31.4346L27.6342 25.7786L23.3038 30.1092L28.9594 35.7654L23.3038 41.4214L27.6342 45.752Z" fill="#828282"/>
<path d="M59.0548 45.752L64.7102 40.096L70.3658 45.752L74.6962 41.4214L69.0406 35.7654L74.6962 30.1092L70.3658 25.7786L64.7102 31.4346L59.0548 25.7786L54.7242 30.1092L60.3798 35.7654L54.7242 41.4214L59.0548 45.752Z" fill="#828282"/>
<path d="M13.8172 98H84.183C91.8002 98 98 91.8002 98 84.1828V13.8172C98 6.1982 91.8002 0 84.1828 0H13.8172C6.1998 0 0 6.1982 0 13.8172V84.183C0 91.8002 6.1998 98 13.8172 98ZM6.125 13.8172C6.125 9.5764 9.5762 6.125 13.8172 6.125H84.183C88.4238 6.125 91.8752 9.5764 91.8752 13.8172V84.183C91.8752 88.4238 88.4238 91.8752 84.183 91.8752H13.8172C9.5764 91.8752 6.125 88.4238 6.125 84.183V13.8172Z" fill="#828282"/>
</svg>
