<svg width="32" height="32" viewBox="0 0 32 32" fill="none" xmlns="http://www.w3.org/2000/svg">
<rect width="32" height="32" rx="16" fill="#EB5757"/>
<path fill-rule="evenodd" clip-rule="evenodd" d="M18.79 7.29L19.5 8H22C22.55 8 23 8.45 23 9C23 9.55 22.55 10 22 10H10C9.45 10 9 9.55 9 9C9 8.45 9.45 8 10 8H12.5L13.21 7.29C13.39 7.11 13.65 7 13.91 7H18.09C18.35 7 18.61 7.11 18.79 7.29ZM10 23C10 24.1 10.9 25 12 25H20C21.1 25 22 24.1 22 23V13C22 11.9 21.1 11 20 11H12C10.9 11 10 11.9 10 13V23ZM13 13H19C19.55 13 20 13.45 20 14V22C20 22.55 19.55 23 19 23H13C12.45 23 12 22.55 12 22V14C12 13.45 12.45 13 13 13Z" fill="white"/>
</svg>
