<svg width="16" height="16" viewBox="0 0 16 16" fill="none" xmlns="http://www.w3.org/2000/svg">
<path d="M7.00501 1.20874V12.3787L2.12501 7.49874C1.73501 7.10874 1.09501 7.10874 0.705006 7.49874C0.315006 7.88874 0.315006 8.51874 0.705006 8.90874L7.29501 15.4987C7.68501 15.8887 8.31501 15.8887 8.70501 15.4987L15.295 8.90874C15.685 8.51874 15.685 7.88874 15.295 7.49874C15.1082 7.31149 14.8545 7.20625 14.59 7.20625C14.3255 7.20625 14.0718 7.31149 13.885 7.49874L9.00501 12.3787V1.20874C9.00501 0.65874 8.55501 0.20874 8.00501 0.20874C7.45501 0.20874 7.00501 0.65874 7.00501 1.20874Z" fill="#EB5757"/>
</svg>
