<svg width="18" height="18" viewBox="0 0 18 18" fill="none" xmlns="http://www.w3.org/2000/svg">
<path d="M8.44711 0.189618C8.60509 0.0667231 8.79953 0 8.99969 0C9.19984 0 9.39429 0.0667231 9.55227 0.189618L16.9572 5.94942C17.282 6.20204 17.5447 6.52553 17.7253 6.8952C17.9059 7.26486 17.9997 7.67091 17.9994 8.08234V16.2001C17.9994 16.6774 17.8097 17.1353 17.4722 17.4728C17.1346 17.8104 16.6768 18 16.1994 18H12.5996C12.1222 18 11.6644 17.8104 11.3268 17.4728C10.9893 17.1353 10.7996 16.6774 10.7996 16.2001V10.8003H7.19975V16.2001C7.19975 16.6774 7.01011 17.1353 6.67256 17.4728C6.33501 17.8104 5.87719 18 5.39981 18H1.79994C1.32256 18 0.864743 17.8104 0.527189 17.4728C0.189636 17.1353 0 16.6774 0 16.2001V8.08234C0 7.24717 0.385187 6.4624 1.04396 5.94942L8.44711 0.189618ZM8.99969 2.03995L2.14733 7.36957C2.03884 7.45396 1.95112 7.56208 1.8909 7.68564C1.83068 7.80919 1.79957 7.9449 1.79994 8.08234V16.2001H5.39981V10.8003C5.39981 10.3229 5.58945 9.86506 5.927 9.5275C6.26456 9.18995 6.72238 9.00031 7.19975 9.00031H10.7996C11.277 9.00031 11.7348 9.18995 12.0724 9.5275C12.4099 9.86506 12.5996 10.3229 12.5996 10.8003V16.2001H16.1994V8.08234C16.1998 7.9449 16.1687 7.80919 16.1085 7.68564C16.0483 7.56208 15.9605 7.45396 15.8521 7.36957L8.99969 2.04175V2.03995Z" fill="#696969"/>
</svg>
