<svg width="24" height="24" viewBox="0 0 24 24" fill="none" xmlns="http://www.w3.org/2000/svg">
<path d="M21.7578 6.7172C21.4437 5.98979 20.9907 5.33062 20.4242 4.77658C19.8573 4.22089 19.189 3.77929 18.4555 3.4758C17.6949 3.15984 16.8791 2.99812 16.0555 3.00002C14.9 3.00002 13.7727 3.31642 12.793 3.91408C12.5586 4.05705 12.3359 4.21408 12.125 4.38517C11.9141 4.21408 11.6914 4.05705 11.457 3.91408C10.4773 3.31642 9.35 3.00002 8.19453 3.00002C7.3625 3.00002 6.55625 3.15939 5.79453 3.4758C5.05859 3.78049 4.39531 4.21877 3.82578 4.77658C3.25859 5.32999 2.8055 5.98932 2.49219 6.7172C2.16641 7.47424 2 8.27814 2 9.10549C2 9.88595 2.15938 10.6992 2.47578 11.5266C2.74063 12.218 3.12031 12.9352 3.60547 13.6594C4.37422 14.8055 5.43125 16.0008 6.74375 17.2125C8.91875 19.2211 11.0727 20.6086 11.1641 20.6649L11.7195 21.0211C11.9656 21.1781 12.282 21.1781 12.5281 21.0211L13.0836 20.6649C13.175 20.6063 15.3266 19.2211 17.5039 17.2125C18.8164 16.0008 19.8734 14.8055 20.6422 13.6594C21.1273 12.9352 21.5094 12.218 21.7719 11.5266C22.0883 10.6992 22.2477 9.88595 22.2477 9.10549C22.25 8.27814 22.0836 7.47424 21.7578 6.7172Z" fill="black"/>
</svg>
