<svg width="16" height="16" viewBox="0 0 16 16" fill="none" xmlns="http://www.w3.org/2000/svg">
<path d="M9 14.7912V3.62123L13.88 8.50123C14.27 8.89123 14.91 8.89123 15.3 8.50123C15.69 8.11123 15.69 7.48123 15.3 7.09123L8.71 0.501226C8.52317 0.313973 8.26952 0.20874 8.005 0.20874C7.74048 0.20874 7.48683 0.313973 7.3 0.501226L0.700001 7.08123C0.310001 7.47123 0.310001 8.10123 0.700001 8.49123C1.09 8.88123 1.72 8.88123 2.11 8.49123L7 3.62123V14.7912C7 15.3412 7.45 15.7912 8 15.7912C8.55 15.7912 9 15.3412 9 14.7912Z" fill="#219653"/>
</svg>
