<svg width="36" height="32" viewBox="0 0 36 32" fill="none" xmlns="http://www.w3.org/2000/svg">
<path d="M35.0761 6.75509C34.5265 5.48213 33.7337 4.32858 32.7424 3.35901C31.7503 2.38655 30.5807 1.61375 29.2971 1.08264C27.9661 0.529714 26.5384 0.246704 25.0971 0.250029C23.075 0.250029 21.1022 0.803729 19.3878 1.84963C18.9776 2.09983 18.5878 2.37463 18.2188 2.67404C17.8497 2.37463 17.4599 2.09983 17.0497 1.84963C15.3353 0.803729 13.3625 0.250029 11.3404 0.250029C9.88437 0.250029 8.47344 0.528926 7.14043 1.08264C5.85253 1.61585 4.69179 2.38284 3.69511 3.35901C2.70253 4.32748 1.90962 5.4813 1.36133 6.75509C0.791217 8.07991 0.5 9.48674 0.5 10.9346C0.5 12.3004 0.778915 13.7236 1.33262 15.1715C1.7961 16.3815 2.46054 17.6366 3.30957 18.9039C4.65488 20.9096 6.50469 23.0014 8.80156 25.1219C12.6078 28.6369 16.3772 31.065 16.5372 31.1636L17.5091 31.7869C17.9398 32.0617 18.4935 32.0617 18.9242 31.7869L19.8963 31.1636C20.0562 31.061 23.8216 28.6369 27.6318 25.1219C29.9287 23.0014 31.7785 20.9096 33.1239 18.9039C33.9728 17.6366 34.6414 16.3815 35.1008 15.1715C35.6545 13.7236 35.9335 12.3004 35.9335 10.9346C35.9375 9.48674 35.6463 8.07991 35.0761 6.75509Z" fill="#EB5757"/>
</svg>
